<svg width="18" height="119" viewBox="0 0 18 119" fill="none" xmlns="http://www.w3.org/2000/svg">
<path d="M4.572 10.404H0.6V9.396L3.456 3.36H4.668L1.812 9.396H4.572V6.96H5.652V9.396H6.552V10.404H5.652V12H4.572V10.404ZM7.94606 10.824H9.12206V12H7.94606V10.824ZM13.9044 12.18C13.3524 12.18 12.8524 12.056 12.4044 11.808C11.9644 11.552 11.6164 11.204 11.3604 10.764C11.1124 10.316 10.9884 9.816 10.9884 9.264V6.096C10.9884 5.544 11.1124 5.048 11.3604 4.608C11.6164 4.16 11.9644 3.812 12.4044 3.564C12.8524 3.308 13.3524 3.18 13.9044 3.18C14.4564 3.18 14.9524 3.308 15.3924 3.564C15.8404 3.812 16.1884 4.16 16.4364 4.608C16.6924 5.048 16.8204 5.544 16.8204 6.096V9.264C16.8204 9.816 16.6924 10.316 16.4364 10.764C16.1884 11.204 15.8404 11.552 15.3924 11.808C14.9524 12.056 14.4564 12.18 13.9044 12.18ZM13.9044 11.148C14.2404 11.148 14.5484 11.068 14.8284 10.908C15.1084 10.74 15.3284 10.516 15.4884 10.236C15.6564 9.956 15.7404 9.652 15.7404 9.324V6.024C15.7404 5.696 15.6564 5.392 15.4884 5.112C15.3284 4.832 15.1084 4.612 14.8284 4.452C14.5484 4.284 14.2404 4.2 13.9044 4.2C13.5764 4.2 13.2724 4.284 12.9924 4.452C12.7124 4.612 12.4884 4.832 12.3204 5.112C12.1604 5.392 12.0804 5.696 12.0804 6.024V9.324C12.0804 9.652 12.1604 9.956 12.3204 10.236C12.4884 10.516 12.7124 10.74 12.9924 10.908C13.2724 11.068 13.5764 11.148 13.9044 11.148Z" fill="white"/>
<g filter="url(#filter0_b_589_5742)">
<path d="M8 101C6.1579 104.313 4.88259 106.591 3 110L5.51012 114.5L8 119L10.5101 114.5L13 110L8 101Z" fill="white"/>
</g>
<g filter="url(#filter1_b_589_5742)">
<path d="M8 81C6.1579 84.3128 4.88259 86.5915 3 90L5.51012 94.5L8 99L10.5101 94.5L13 90L8 81Z" fill="white"/>
</g>
<g filter="url(#filter2_b_589_5742)">
<path d="M8 61C6.1579 64.3128 4.88259 66.5915 3 70L5.51012 74.5L8 79L10.5101 74.5L13 70L8 61Z" fill="white"/>
</g>
<g filter="url(#filter3_b_589_5742)">
<path d="M8 41C6.1579 44.3128 4.88259 46.5915 3 50L5.51012 54.5L8 59L10.5101 54.5L13 50L8 41Z" fill="white"/>
</g>
<g filter="url(#filter4_b_589_5742)">
<path d="M5.94678 34.2564L5.94762 34.2579L8.00177 37.9704L10.0726 34.2579L10.0735 34.2564L12.4283 30.0005L7.99973 22.0291C7.62838 22.6965 7.27813 23.3254 6.9379 23.9364C5.83619 25.9149 4.83954 27.7046 3.57187 29.9988L5.94678 34.2564Z" stroke="white"/>
</g>
<defs>
<filter id="filter0_b_589_5742" x="-7" y="91" width="30" height="38" filterUnits="userSpaceOnUse" color-interpolation-filters="sRGB">
<feFlood flood-opacity="0" result="BackgroundImageFix"/>
<feGaussianBlur in="BackgroundImageFix" stdDeviation="5"/>
<feComposite in2="SourceAlpha" operator="in" result="effect1_backgroundBlur_589_5742"/>
<feBlend mode="normal" in="SourceGraphic" in2="effect1_backgroundBlur_589_5742" result="shape"/>
</filter>
<filter id="filter1_b_589_5742" x="-7" y="71" width="30" height="38" filterUnits="userSpaceOnUse" color-interpolation-filters="sRGB">
<feFlood flood-opacity="0" result="BackgroundImageFix"/>
<feGaussianBlur in="BackgroundImageFix" stdDeviation="5"/>
<feComposite in2="SourceAlpha" operator="in" result="effect1_backgroundBlur_589_5742"/>
<feBlend mode="normal" in="SourceGraphic" in2="effect1_backgroundBlur_589_5742" result="shape"/>
</filter>
<filter id="filter2_b_589_5742" x="-7" y="51" width="30" height="38" filterUnits="userSpaceOnUse" color-interpolation-filters="sRGB">
<feFlood flood-opacity="0" result="BackgroundImageFix"/>
<feGaussianBlur in="BackgroundImageFix" stdDeviation="5"/>
<feComposite in2="SourceAlpha" operator="in" result="effect1_backgroundBlur_589_5742"/>
<feBlend mode="normal" in="SourceGraphic" in2="effect1_backgroundBlur_589_5742" result="shape"/>
</filter>
<filter id="filter3_b_589_5742" x="-7" y="31" width="30" height="38" filterUnits="userSpaceOnUse" color-interpolation-filters="sRGB">
<feFlood flood-opacity="0" result="BackgroundImageFix"/>
<feGaussianBlur in="BackgroundImageFix" stdDeviation="5"/>
<feComposite in2="SourceAlpha" operator="in" result="effect1_backgroundBlur_589_5742"/>
<feBlend mode="normal" in="SourceGraphic" in2="effect1_backgroundBlur_589_5742" result="shape"/>
</filter>
<filter id="filter4_b_589_5742" x="-7" y="11" width="30" height="38" filterUnits="userSpaceOnUse" color-interpolation-filters="sRGB">
<feFlood flood-opacity="0" result="BackgroundImageFix"/>
<feGaussianBlur in="BackgroundImageFix" stdDeviation="5"/>
<feComposite in2="SourceAlpha" operator="in" result="effect1_backgroundBlur_589_5742"/>
<feBlend mode="normal" in="SourceGraphic" in2="effect1_backgroundBlur_589_5742" result="shape"/>
</filter>
</defs>
</svg>
